<svg width="99" height="20" viewBox="0 0 99 20" fill="none" xmlns="http://www.w3.org/2000/svg">
<path d="M86.4841 14.0163V10.686L99 4.70225V8.16793L89.7666 12.3647L99 16.5343V20L86.4841 14.0163Z" fill="white"/>
<path d="M0 18.953V0H4.91192L9.39876 17.0035H9.7766V0H12.3034V18.953H7.39149L2.90464 1.92237H2.5268V18.953H0Z" fill="white"/>
<path d="M18.2542 19.332C17.4198 19.332 16.672 19.1696 16.0108 18.8447C15.3653 18.5198 14.8458 18.0414 14.4522 17.4097C14.0743 16.7779 13.8854 16.0107 13.8854 15.1082C13.8854 14.1877 14.0743 13.4295 14.4522 12.8339C14.8458 12.2202 15.3732 11.7599 16.0344 11.453C16.7113 11.1462 17.4749 10.9927 18.325 10.9927H21.8673V10.1263C21.8673 9.35013 21.6626 8.72739 21.2533 8.25808C20.844 7.78877 20.2142 7.55411 19.3641 7.55411C18.5297 7.55411 17.8921 7.77974 17.4513 8.231C17.0105 8.68227 16.7192 9.2689 16.5775 9.99092L14.3105 9.15158C14.4994 8.42956 14.7985 7.77974 15.2079 7.20213C15.6329 6.60646 16.1918 6.12813 16.8845 5.76712C17.5772 5.40611 18.4116 5.2256 19.3877 5.2256C20.8991 5.2256 22.0877 5.66784 22.9536 6.55231C23.8195 7.43678 24.2524 8.69129 24.2524 10.3158V15.8122C24.2524 16.3537 24.4728 16.6245 24.9136 16.6245H25.9054V18.953H24.0871C23.5361 18.953 23.0874 18.7905 22.741 18.4656C22.3947 18.1407 22.2215 17.6985 22.2215 17.1389V17.0577H21.8673C21.7413 17.3284 21.5524 17.6443 21.3005 18.0053C21.0486 18.3663 20.6787 18.6822 20.1906 18.953C19.7026 19.2057 19.0571 19.332 18.2542 19.332ZM18.6084 17.0306C19.5845 17.0306 20.3717 16.7147 20.9699 16.0829C21.5682 15.4331 21.8673 14.5487 21.8673 13.4295V13.1588H18.4667C17.8213 13.1588 17.3017 13.3212 16.9081 13.6461C16.5146 13.953 16.3178 14.4133 16.3178 15.027C16.3178 15.6407 16.5224 16.1281 16.9318 16.4891C17.3411 16.8501 17.9 17.0306 18.6084 17.0306Z" fill="white"/>
<path d="M30.6513 18.953C29.9429 18.953 29.3761 18.7093 28.951 18.2219C28.5417 17.7346 28.337 17.0847 28.337 16.2725V7.96025H25.1254V5.60466H28.337V1.19133H30.7694V5.60466H34.2408V7.96025H30.7694V15.7851C30.7694 16.3266 30.9898 16.5974 31.4306 16.5974H33.863V18.953H30.6513Z" fill="white"/>
<path d="M39.5077 19.332C38.6733 19.332 37.9255 19.1696 37.2643 18.8447C36.6188 18.5198 36.0992 18.0414 35.7057 17.4097C35.3278 16.7779 35.1389 16.0107 35.1389 15.1082C35.1389 14.1877 35.3278 13.4295 35.7057 12.8339C36.0992 12.2202 36.6266 11.7599 37.2879 11.453C37.9648 11.1462 38.7284 10.9927 39.5785 10.9927H43.1208V10.1263C43.1208 9.35013 42.9161 8.72739 42.5068 8.25808C42.0975 7.78877 41.4677 7.55411 40.6176 7.55411C39.7832 7.55411 39.1456 7.77974 38.7048 8.231C38.264 8.68227 37.9727 9.2689 37.831 9.99092L35.564 9.15158C35.7529 8.42956 36.052 7.77974 36.4613 7.20213C36.8864 6.60646 37.4453 6.12813 38.138 5.76712C38.8307 5.40611 39.6651 5.2256 40.6412 5.2256C42.1525 5.2256 43.3412 5.66784 44.2071 6.55231C45.0729 7.43678 45.5059 8.69129 45.5059 10.3158V15.8122C45.5059 16.3537 45.7263 16.6245 46.1671 16.6245H47.1589V18.953H45.3406C44.7896 18.953 44.3409 18.7905 43.9945 18.4656C43.6482 18.1407 43.475 17.6985 43.475 17.1389V17.0577H43.1208C42.9948 17.3284 42.8059 17.6443 42.554 18.0053C42.3021 18.3663 41.9321 18.6822 41.4441 18.953C40.9561 19.2057 40.3106 19.332 39.5077 19.332ZM39.8619 17.0306C40.838 17.0306 41.6251 16.7147 42.2234 16.0829C42.8216 15.4331 43.1208 14.5487 43.1208 13.4295V13.1588H39.7202C39.0747 13.1588 38.5552 13.3212 38.1616 13.6461C37.768 13.953 37.5712 14.4133 37.5712 15.027C37.5712 15.6407 37.7759 16.1281 38.1852 16.4891C38.5946 16.8501 39.1534 17.0306 39.8619 17.0306Z" fill="white"/>
<path d="M48.3432 18.953V5.60466H50.7283V7.60826H51.1061C51.3265 7.06675 51.7201 6.56134 52.2869 6.09203C52.8536 5.62271 53.6959 5.38806 54.8137 5.38806C55.6953 5.38806 56.4746 5.61369 57.1516 6.06495C57.8443 6.51621 58.3874 7.157 58.781 7.98732C59.1746 8.79959 59.3714 9.78334 59.3714 10.9386V18.953H56.939V11.1552C56.939 9.99995 56.6871 9.15158 56.1833 8.61006C55.6796 8.0505 54.9869 7.77072 54.1052 7.77072C53.0977 7.77072 52.2869 8.14978 51.6729 8.9079C51.0746 9.66601 50.7755 10.7671 50.7755 12.2111V18.953H48.3432Z" fill="white"/>
<path d="M67.1462 19.332C65.9812 19.332 64.9422 19.0613 64.0291 18.5198C63.1317 17.9602 62.4232 17.166 61.9037 16.1371C61.3842 15.1082 61.1244 13.8898 61.1244 12.4819V12.0757C61.1244 10.6678 61.3842 9.45844 61.9037 8.44761C62.4232 7.41873 63.1317 6.62451 64.0291 6.06495C64.9422 5.50539 65.9812 5.2256 67.1462 5.2256C68.3112 5.2256 69.3503 5.50539 70.2634 6.06495C71.1765 6.62451 71.8928 7.41873 72.4124 8.44761C72.9319 9.45844 73.1917 10.6678 73.1917 12.0757V12.4819C73.1917 13.8898 72.9319 15.1082 72.4124 16.1371C71.8928 17.166 71.1765 17.9602 70.2634 18.5198C69.3503 19.0613 68.3112 19.332 67.1462 19.332ZM67.1462 16.8411C68.2168 16.8411 69.0827 16.453 69.7439 15.6768C70.4208 14.8826 70.7593 13.7905 70.7593 12.4007V12.157C70.7593 10.7671 70.4287 9.68406 69.7675 8.9079C69.1063 8.11368 68.2325 7.71657 67.1462 7.71657C66.0914 7.71657 65.2256 8.11368 64.5486 8.9079C63.8874 9.68406 63.5568 10.7671 63.5568 12.157V12.4007C63.5568 13.7905 63.8874 14.8826 64.5486 15.6768C65.2256 16.453 66.0914 16.8411 67.1462 16.8411Z" fill="white"/>
<path d="M79.8094 19.332C78.3295 19.332 77.1015 18.953 76.1255 18.1949C75.1494 17.4367 74.5511 16.2905 74.3307 14.7562L76.5978 14.1335C76.7237 14.8736 76.9362 15.4602 77.2354 15.8934C77.5345 16.3266 77.9045 16.6335 78.3453 16.814C78.8018 16.9945 79.2899 17.0847 79.8094 17.0847C80.5808 17.0847 81.1712 16.9133 81.5805 16.5703C82.0056 16.2274 82.2181 15.7851 82.2181 15.2436C82.2181 14.7021 82.0213 14.305 81.6278 14.0523C81.2342 13.7996 80.6517 13.592 79.8802 13.4295L79.0773 13.2671C78.2902 13.1046 77.5738 12.87 76.9284 12.5631C76.2829 12.2563 75.7712 11.8321 75.3934 11.2906C75.0156 10.749 74.8266 10.0541 74.8266 9.20573C74.8266 7.9422 75.236 6.96747 76.0546 6.28156C76.8733 5.57759 77.9596 5.2256 79.3135 5.2256C80.6202 5.2256 81.6907 5.56856 82.5251 6.25448C83.3753 6.92235 83.9263 7.83389 84.1782 8.98912L81.9111 9.72017C81.7694 8.9079 81.4703 8.33931 81.0138 8.0144C80.5572 7.67144 79.9904 7.49996 79.3135 7.49996C78.6523 7.49996 78.1327 7.64437 77.7549 7.93317C77.3771 8.20393 77.1881 8.59201 77.1881 9.09743C77.1881 9.63894 77.3692 10.036 77.7313 10.2888C78.1091 10.5415 78.6129 10.731 79.2426 10.8573L80.0692 11.0198C80.9036 11.1823 81.6671 11.4079 82.3598 11.6967C83.0525 11.9855 83.5957 12.4007 83.9893 12.9422C84.3986 13.4837 84.6032 14.2057 84.6032 15.1082C84.6032 16.444 84.1703 17.4819 83.3044 18.2219C82.4385 18.962 81.2735 19.332 79.8094 19.332Z" fill="white"/>
</svg>
