<svg width="113" height="115" viewBox="0 0 113 115" fill="none" xmlns="http://www.w3.org/2000/svg">
<rect y="2" width="113" height="110.994" rx="55.497" fill="#D9D9D9" fill-opacity="0.1"/>
<path d="M56.5461 43.1675V69.728M56.5461 69.728L69.8263 56.4478M56.5461 69.728L43.2658 56.4478" stroke="white" stroke-opacity="0.9" stroke-width="3.5" stroke-linecap="round"/>
<path d="M55.5621 99.6175H57.0181V114.033H55.5621V99.6175Z" fill="white" fill-opacity="0.6"/>
<path d="M37.7454 97.1222L38.4542 102.352L40.0803 103.025L41.8253 98.8122L43.1705 99.3693L38.9028 109.672L35.5768 108.295C34.7983 107.972 34.1981 107.568 33.7761 107.081C33.3443 106.591 33.0893 106.064 33.011 105.5C32.9326 104.937 33.0139 104.364 33.2547 103.783C33.5486 103.073 34.0148 102.533 34.6532 102.163C35.2818 101.788 36.0417 101.681 36.9332 101.843L36.1342 96.4548L37.7454 97.1222ZM39.6333 104.104L37.6525 103.284C36.9232 102.982 36.3028 102.932 35.7912 103.136C35.2756 103.35 34.8933 103.757 34.6443 104.358C34.3912 104.969 34.3776 105.518 34.6034 106.004C34.8194 106.486 35.2969 106.88 36.036 107.186L38.0168 108.007L39.6333 104.104Z" fill="white" fill-opacity="0.6"/>
<path d="M32.0602 93.6762C32.9205 94.251 33.5721 94.975 34.015 95.8482C34.4519 96.7303 34.6388 97.6697 34.5756 98.6667C34.4976 99.6665 34.1564 100.619 33.5519 101.523C32.9475 102.428 32.2013 103.103 31.3133 103.549C30.4105 103.998 29.471 104.185 28.4948 104.11C27.5127 104.044 26.5915 103.723 25.7312 103.148C24.862 102.568 24.209 101.836 23.7721 100.954C23.3292 100.081 23.1438 99.1488 23.2158 98.1578C23.2879 97.1668 23.6291 96.2145 24.2395 95.301C24.8499 94.3875 25.5991 93.7079 26.487 93.2621C27.375 92.8163 28.3101 92.6264 29.2922 92.6926C30.2684 92.7675 31.1911 93.0954 32.0602 93.6762ZM31.358 94.7271C30.7106 94.2945 30.0289 94.0572 29.313 94.015C28.5883 93.9669 27.8929 94.1244 27.2268 94.4876C26.552 94.8449 25.9686 95.3916 25.4767 96.1277C24.9789 96.8727 24.6971 97.6209 24.6312 98.3723C24.5506 99.1266 24.6667 99.8263 24.9796 100.472C25.2925 101.117 25.7771 101.659 26.4334 102.097C27.0897 102.536 27.7758 102.776 28.4917 102.818C29.2076 102.86 29.903 102.703 30.5779 102.346C31.238 101.991 31.8169 101.442 32.3147 100.697C32.8066 99.9606 33.0929 99.2154 33.1735 98.4611C33.2453 97.7008 33.1248 96.9981 32.8118 96.3528C32.4901 95.7016 32.0054 95.1597 31.358 94.7271Z" fill="white" fill-opacity="0.6"/>
<path d="M25.0969 89.6541L22.3363 86.8936L23.1735 86.0564L26.9636 89.8465L19.078 97.7321L18.0484 96.7026L25.0969 89.6541Z" fill="white" fill-opacity="0.6"/>
<path d="M12.4844 88.3135L15.5841 86.2424L13.3263 82.8633L14.324 82.1966L16.5819 85.5757L19.7747 83.4423L17.2502 79.6641L18.248 78.9974L21.5814 83.9862L12.2955 90.1908L8.9621 85.202L9.95986 84.5353L12.4844 88.3135Z" fill="white" fill-opacity="0.6"/>
<path d="M10.6415 63.8592L11.5905 68.6298L14.1976 69.0247L14.4973 70.5312L2.83572 68.7399L2.50797 67.0921L12.5994 60.9901L12.8991 62.4966L10.6415 63.8592ZM9.56145 64.4982L4.43097 67.5742L10.3481 68.4528L9.56145 64.4982Z" fill="white" fill-opacity="0.6"/>
<path d="M6.66066 43.4327C7.57083 43.6137 8.26687 44.0785 8.7488 44.8269C9.22234 45.5627 9.33217 46.5688 9.07829 47.8451L8.66002 49.9479L13.2266 50.8563L12.9425 52.2843L2.00478 50.1087L2.70711 46.5778C2.95266 45.3434 3.43707 44.4663 4.16032 43.9468C4.88566 43.4168 5.71911 43.2454 6.66066 43.4327ZM7.90135 47.611C8.0595 46.8159 8.00342 46.1958 7.7331 45.7505C7.46277 45.3052 7.00853 45.0191 6.37037 44.8921C5.02081 44.6237 4.19203 45.2636 3.88405 46.8119L3.46578 48.9147L7.48307 49.7138L7.90135 47.611Z" fill="white" fill-opacity="0.6"/>
<path d="M14.8502 37.2651L12.9888 41.7588L14.9372 43.5357L14.3494 44.9548L5.64838 36.9865L6.29129 35.4344L18.0721 35.9673L17.4843 37.3863L14.8502 37.2651ZM13.5971 37.1963L7.62236 36.9036L12.0542 40.9214L13.5971 37.1963ZM4.2756 33.8201L4.65657 37.6667L3.65139 37.2504L3.10781 33.3364L4.2756 33.8201Z" fill="white" fill-opacity="0.6"/>
<path d="M15.6419 25.642C14.929 25.5377 14.2633 25.6317 13.6447 25.924C13.0172 26.2103 12.4872 26.6771 12.0546 27.3246C11.622 27.972 11.3816 28.6581 11.3335 29.3829C11.2825 30.0928 11.4356 30.7853 11.7928 31.4601C12.1472 32.1202 12.688 32.6933 13.4152 33.1792C14.1425 33.6651 14.8788 33.9455 15.6243 34.0202C16.3756 34.0861 17.0739 33.9626 17.7192 33.6496C18.3615 33.3219 18.899 32.8344 19.3316 32.1869C19.936 31.2823 20.1633 30.3565 20.0134 29.4097C19.8635 28.4629 19.36 27.6325 18.5028 26.9186L16.0316 30.617L15.0472 29.9592L18.3806 24.9704L19.3118 25.5926C20.0272 26.1732 20.5678 26.8808 20.9338 27.7155C21.2909 28.5442 21.4335 29.4156 21.3615 30.3297C21.2807 31.2378 20.9677 32.0999 20.4225 32.9158C19.8476 33.7761 19.1236 34.4277 18.2504 34.8705C17.3684 35.3075 16.4289 35.4943 15.432 35.4312C14.441 35.3591 13.4932 35.0209 12.5885 34.4164C11.6839 33.812 11.0087 33.0657 10.5629 32.1778C10.1141 31.275 9.92727 30.3355 10.0023 29.3593C10.0684 28.3772 10.3888 27.456 10.9637 26.5957C11.6215 25.6112 12.4461 24.905 13.4376 24.4771C14.4351 24.0403 15.4928 23.9452 16.6108 24.192L15.6419 25.642Z" fill="white" fill-opacity="0.6"/>
<path d="M18.2203 18.1202L26.1059 26.0059L25.0764 27.0354L17.1907 19.1497L18.2203 18.1202Z" fill="white" fill-opacity="0.6"/>
<path d="M35.8755 18.6347L34.6649 19.4436L24.8623 15.3135L29.7958 22.697L28.5852 23.5059L22.3805 14.2201L23.5912 13.4111L33.3848 17.5279L28.4602 10.1577L29.6709 9.34882L35.8755 18.6347Z" fill="white" fill-opacity="0.6"/>
<path d="M41.3781 13.6831L36.8843 15.5445L37.0056 18.1786L35.5865 18.7664L35.0684 6.97944L36.6205 6.33653L44.574 15.0437L43.1549 15.6315L41.3781 13.6831ZM40.5407 12.7484L36.5228 8.31664L36.8156 14.2914L40.5407 12.7484Z" fill="white" fill-opacity="0.6"/>
<path d="M57.5952 15.3762H56.1392V0.960176L57.5952 0.960176V15.3762Z" fill="white" fill-opacity="0.6"/>
<path d="M75.4142 17.8719L74.7054 12.6426L73.0794 11.9691L71.3343 16.182L69.9891 15.6248L74.2568 5.3217L77.5828 6.69936C78.3613 7.02183 78.9616 7.42632 79.3835 7.91282C79.8153 8.40341 80.0703 8.93047 80.1487 9.494C80.227 10.0575 80.1457 10.63 79.9049 11.2114C79.611 11.921 79.1448 12.461 78.5064 12.8316C77.8779 13.2062 77.1179 13.3129 76.2265 13.1514L77.0254 18.5393L75.4142 17.8719ZM73.5263 10.89L75.5071 11.7105C76.2364 12.0125 76.8568 12.0617 77.3684 11.858C77.884 11.6444 78.2663 11.237 78.5153 10.6359C78.7684 10.0249 78.782 9.47634 78.5562 8.99025C78.3402 8.50824 77.8627 8.11416 77.1236 7.80801L75.1428 6.98754L73.5263 10.89Z" fill="white" fill-opacity="0.6"/>
<path d="M81.0994 21.318C80.2391 20.7431 79.5875 20.0191 79.1447 19.1459C78.7077 18.2639 78.5209 17.3244 78.584 16.3275C78.662 15.3276 79.0032 14.3754 79.6077 13.4707C80.2121 12.5661 80.9583 11.8909 81.8463 11.4451C82.7491 10.9964 83.6886 10.8095 84.6648 10.8845C85.6469 10.9506 86.5681 11.271 87.4284 11.8459C88.2976 12.4266 88.9506 13.158 89.3875 14.0401C89.8304 14.9133 90.0158 15.8454 89.9438 16.8364C89.8717 17.8274 89.5305 18.7796 88.9201 19.6931C88.3097 20.6066 87.5605 21.2863 86.6726 21.7321C85.7846 22.1779 84.8495 22.3677 83.8674 22.3016C82.8912 22.2266 81.9685 21.8987 81.0994 21.318ZM81.8016 20.267C82.449 20.6996 83.1307 20.937 83.8466 20.9792C84.5714 21.0272 85.2667 20.8697 85.9328 20.5065C86.6077 20.1493 87.191 19.6026 87.6829 18.8664C88.1807 18.1214 88.4625 17.3733 88.5284 16.6219C88.6091 15.8676 88.4929 15.1678 88.18 14.5225C87.8671 13.8773 87.3825 13.3354 86.7262 12.8969C86.0699 12.4583 85.3838 12.218 84.6679 12.1758C83.952 12.1336 83.2566 12.2912 82.5817 12.6484C81.9216 13.0028 81.3427 13.5524 80.8449 14.2974C80.353 15.0335 80.0668 15.7788 79.9861 16.5331C79.9143 17.2933 80.0349 17.9961 80.3478 18.6413C80.6696 19.2925 81.1542 19.8344 81.8016 20.267Z" fill="white" fill-opacity="0.6"/>
<path d="M88.0628 25.34L90.8234 28.1006L89.9861 28.9378L86.1961 25.1477L94.0817 17.262L95.1113 18.2916L88.0628 25.34Z" fill="white" fill-opacity="0.6"/>
<path d="M100.675 26.6806L97.5756 28.7518L99.8334 32.1309L98.8356 32.7975L96.5778 29.4185L93.385 31.5518L95.9095 35.33L94.9117 35.9967L91.5783 31.0079L100.864 24.8033L104.198 29.7921L103.2 30.4588L100.675 26.6806Z" fill="white" fill-opacity="0.6"/>
<path d="M102.518 51.1349L101.569 46.3644L98.9619 45.9694L98.6623 44.4629L110.324 46.2543L110.652 47.902L100.56 54.004L100.26 52.4975L102.518 51.1349ZM103.598 50.4959L108.729 47.4199L102.811 46.5414L103.598 50.4959Z" fill="white" fill-opacity="0.6"/>
<path d="M106.499 71.5614C105.589 71.3804 104.893 70.9157 104.411 70.1673C103.937 69.4314 103.827 68.4253 104.081 67.149L104.5 65.0462L99.9331 64.1379L100.217 62.7098L111.155 64.8855L110.453 68.4163C110.207 69.6508 109.723 70.5278 108.999 71.0474C108.274 71.5774 107.441 71.7487 106.499 71.5614ZM105.258 67.3831C105.1 68.1782 105.156 68.7984 105.427 69.2437C105.697 69.689 106.151 69.9751 106.789 70.102C108.139 70.3705 108.968 69.7305 109.276 68.1822L109.694 66.0794L105.677 65.2803L105.258 67.3831Z" fill="white" fill-opacity="0.6"/>
<path d="M98.3117 77.7291L100.173 73.2353L98.2247 71.4585L98.8126 70.0394L107.514 78.0077L106.871 79.5598L95.0898 79.0269L95.6776 77.6078L98.3117 77.7291ZM99.5648 77.7978L105.54 78.0906L101.108 74.0727L99.5648 77.7978ZM108.886 81.174L108.505 77.3274L109.511 77.7438L110.054 81.6577L108.886 81.174Z" fill="white" fill-opacity="0.6"/>
<path d="M97.5176 89.3521C98.2305 89.4564 98.8963 89.3624 99.5149 89.0702C100.142 88.7839 100.672 88.317 101.105 87.6696C101.538 87.0221 101.778 86.336 101.826 85.6113C101.877 84.9013 101.724 84.2089 101.367 83.534C101.012 82.8739 100.472 82.3009 99.7443 81.8149C99.0171 81.329 98.2807 81.0487 97.5353 80.9739C96.7839 80.9081 96.0856 81.0316 95.4403 81.3445C94.798 81.6722 94.2606 82.1598 93.828 82.8072C93.2235 83.7119 92.9962 84.6376 93.1461 85.5844C93.296 86.5313 93.7995 87.3616 94.6567 88.0755L97.1279 84.3771L98.1124 85.0349L94.7789 90.0238L93.8477 89.4015C93.1324 88.8209 92.5917 88.1133 92.2258 87.2786C91.8687 86.4499 91.7261 85.5785 91.798 84.6644C91.8789 83.7563 92.1919 82.8943 92.7371 82.0783C93.3119 81.218 94.0359 80.5664 94.9091 80.1236C95.7912 79.6867 96.7307 79.4998 97.7276 79.563C98.7186 79.635 99.6664 79.9733 100.571 80.5777C101.476 81.1822 102.151 81.9284 102.597 82.8164C103.045 83.7192 103.232 84.6587 103.157 85.6349C103.091 86.617 102.771 87.5382 102.196 88.3985C101.538 89.3829 100.713 90.0891 99.7219 90.5171C98.7245 90.9539 97.6668 91.0489 96.5487 90.8022L97.5176 89.3521Z" fill="white" fill-opacity="0.6"/>
<path d="M94.9393 96.8744L87.0537 88.9888L88.0832 87.9592L95.9689 95.8449L94.9393 96.8744Z" fill="white" fill-opacity="0.6"/>
<path d="M77.2864 96.36L78.497 95.5511L88.2996 99.6811L83.3661 92.2976L84.5767 91.4887L90.7813 100.775L89.5707 101.583L79.777 97.4668L84.7016 104.837L83.491 105.646L77.2864 96.36Z" fill="white" fill-opacity="0.6"/>
<path d="M71.7815 101.312L76.2753 99.4501L76.154 96.816L77.5731 96.2282L78.0912 108.015L76.5391 108.658L68.5856 99.951L70.0047 99.3632L71.7815 101.312ZM72.6189 102.246L76.6368 106.678L76.344 100.703L72.6189 102.246Z" fill="white" fill-opacity="0.6"/>
</svg>
